<svg id="Layer_1" data-name="Layer 1" xmlns="http://www.w3.org/2000/svg" viewBox="0 0 201.58 282.22"><defs><style>.cls-1{fill:#020101;}.cls-2{fill:#fff;}</style></defs><title>back</title><path class="cls-1" d="M201.58,10.08A10.08,10.08,0,0,0,191.5,0H10.08A10.08,10.08,0,0,0,0,10.08H0V272.14a10.08,10.08,0,0,0,10.08,10.08H191.5a10.08,10.08,0,0,0,10.08-10.08V10.08h0Z"/><rect class="cls-2" x="100.79" y="167.35" width="74.79" height="1.12" transform="translate(-78.88 181.04) rotate(-54.01)"/><path class="cls-2" d="M143.69,156.55l-0.91-.66,13.28-18.32c-1-1.31-4-5.42-13.28-18.2l0.91-.66,13.47,18.58,0.24,0.33-0.24.33Z"/><path class="cls-2" d="M133.78,180.69l-0.91-.66,30.78-42.46c-1.12-1.41-4.45-6-15.3-21L132.88,95.24l0.91-.66,31,42.73,0.24,0.33-0.24.33Z"/><path class="cls-2" d="M141.37,164.46l-4.07-5.61,15.43-21.28c-1.11-1.41-4.43-6-15.19-20.82l-0.24-.33,3.38-4.66-3-4.07L115.78,77.42l0.91-.66,43.89,60.55,0.24,0.33Zm-2.69-5.61,2.69,3.71,18.07-24.92-18.07-24.92-2.69,3.71,15.14,20.88,0.24,0.33-0.24.33Z"/><rect class="cls-2" x="62.84" y="130.52" width="1.12" height="74.79" transform="translate(-86.48 69.18) rotate(-35.94)"/><polygon class="cls-2" points="100.79 215.94 92.17 204.05 93.08 203.39 100.79 214.03 108.5 203.39 109.41 204.05 100.79 215.94"/><polygon class="cls-2" points="100.79 226.2 91.69 213.65 92.59 212.99 100.79 224.3 108.99 212.99 109.89 213.65 100.79 226.2"/><path class="cls-2" d="M57.89,156.55L44.18,137.63l0.24-.33,13.47-18.58,0.91,0.66c-9.27,12.78-12.24,16.88-13.28,18.2L58.8,155.89Z"/><polygon class="cls-2" points="93.08 71.88 92.17 71.22 100.79 59.34 109.41 71.22 108.5 71.88 100.79 61.24 93.08 71.88"/><path class="cls-2" d="M67.8,180.69L36.58,137.64l0.24-.33,31-42.73,0.91,0.66L53.22,116.6c-10.85,15-14.18,19.56-15.3,21L68.7,180Z"/><polygon class="cls-2" points="108.99 62.28 100.79 50.98 92.59 62.28 91.69 61.62 100.79 49.07 109.89 61.62 108.99 62.28"/><path class="cls-2" d="M60.21,164.46L40.76,137.64l0.24-.33,1.37-1.89,16.29-22.47L84.9,76.76l0.91,0.66L63.85,107.69l-3,4.07,3.38,4.66-0.24.33C53.28,131.6,50,136.17,48.86,137.57l15.43,21.28ZM42.15,137.64l18.07,24.92,2.69-3.71L47.52,137.63l0.24-.33L62.9,116.42l-2.69-3.71Z"/><path class="cls-2" d="M190.94,77c-2.17-31.93-13.52-46.5-16.5-49.81-3.31-3-17.89-14.34-49.81-16.5l0-1.12h51.8l-1.07,1a13.55,13.55,0,0,0-1.62,1.91h7.94V9.52h10.34V19.86h-2.88V27.8a13.46,13.46,0,0,0,1.91-1.62l1-1.07v51.8ZM176.28,27.58c3.55,4.4,11.39,16.3,14.67,38.72V27.86a16.76,16.76,0,0,1-1.76,1.31V43.73l-1.11.1c-1-5.47-5.69-12.51-5.73-12.58l-0.51-.77,0.92-.1a13.34,13.34,0,0,0,5.32-1.85V19.86h-4.69l5.81-6.8v5.68h1.76v-8.1h-8.1V12.4h5.68l-6.8,5.81V13.52h-8.67a13.32,13.32,0,0,0-1.85,5.32l-0.1.92-0.77-.51c-0.07,0-7.12-4.73-12.58-5.73l0.1-1.11h14.56a16.65,16.65,0,0,1,1.31-1.76H135.28C157.7,13.91,169.61,21.76,174,25.31l0.33,0.17c-0.75-3.53,0-7.83,1.59-9.35a1.94,1.94,0,0,1,2.4-.4,3.07,3.07,0,0,1,1.71,2,4.71,4.71,0,0,1-.9,3.39l-0.9-.67a3.64,3.64,0,0,0,.71-2.48,2,2,0,0,0-1.13-1.3,0.83,0.83,0,0,0-1.09.21c-1.4,1.37-2,5.84-1.09,9,3.2,0.93,7.67.31,9-1.09a0.84,0.84,0,0,0,.21-1.09,2,2,0,0,0-1.3-1.13,3.67,3.67,0,0,0-2.48.71l-0.67-.9a4.72,4.72,0,0,1,3.39-.9,3.07,3.07,0,0,1,2,1.71,1.94,1.94,0,0,1-.4,2.4c-1.51,1.54-5.82,2.33-9.35,1.59Zm7.47,3.79a51.09,51.09,0,0,1,4.32,8.45v-10A14.52,14.52,0,0,1,183.75,31.37Zm2.06-12.63h2.26V16.09Zm-24-5.22a51,51,0,0,1,8.45,4.32,14.51,14.51,0,0,1,1.54-4.32h-10Zm21.07,0v2.26l2.65-2.26h-2.65Z"/><path class="cls-2" d="M76.92,272.7H25.11l1.07-1a13.54,13.54,0,0,0,1.62-1.91H19.86v2.88H9.52V262.36H12.4v-7.94A13.5,13.5,0,0,0,10.49,256l-1,1.07V205.3l1.12,0c2.17,31.93,13.52,46.5,16.5,49.81,3.31,3,17.88,14.34,49.81,16.5Zm-49.06-1.12H66.3C43.88,268.3,32,260.46,27.58,256.91l-0.33-.17c0.75,3.53,0,7.83-1.58,9.35a1.94,1.94,0,0,1-2.4.4,3.07,3.07,0,0,1-1.71-2,4.71,4.71,0,0,1,.9-3.39l0.9,0.67a3.64,3.64,0,0,0-.71,2.48,2,2,0,0,0,1.13,1.3,0.83,0.83,0,0,0,1.09-.21c1.4-1.37,2-5.84,1.09-9-3.21-.93-7.67-0.31-9,1.09a0.84,0.84,0,0,0-.21,1.09,2,2,0,0,0,1.3,1.13,3.64,3.64,0,0,0,2.48-.71l0.67,0.9a4.67,4.67,0,0,1-3.39.9,3.07,3.07,0,0,1-2-1.71,1.94,1.94,0,0,1,.4-2.4c1.51-1.55,5.82-2.33,9.35-1.59l-0.17-.33c-3.55-4.4-11.39-16.3-14.67-38.72v38.44A16.64,16.64,0,0,1,12.4,253V238.49l1.11-.1c1,5.47,5.69,12.51,5.73,12.58l0.51,0.77-0.92.1a13.33,13.33,0,0,0-5.32,1.85v8.67h4.69l-5.81,6.8v-5.68H10.64v8.1h8.1v-1.76H13.05l6.8-5.81v4.69h8.67a13.32,13.32,0,0,0,1.85-5.32l0.1-.92L31.25,263c0.07,0,7.12,4.73,12.58,5.73l-0.1,1.11H29.17A16.75,16.75,0,0,1,27.86,271.58Zm2-2.88h10a51,51,0,0,1-8.44-4.32A14.49,14.49,0,0,1,29.83,268.7Zm-13.74,0h2.65v-2.26Zm-2.57-5.22v2.65l2.26-2.65H13.52Zm0-21.07v10a14.46,14.46,0,0,1,4.32-1.53A51.07,51.07,0,0,1,13.52,242.4Z"/><path class="cls-2" d="M10.64,77l-1.12,0V25.12l1,1.07A13.39,13.39,0,0,0,12.4,27.8V19.86H9.52V9.52H19.86V12.4H27.8a13.31,13.31,0,0,0-1.62-1.91l-1.07-1H76.92l0,1.12C45,12.81,30.45,24.16,27.14,27.14,24.16,30.45,12.81,45,10.64,77Zm0-49.1V66.3C13.91,43.88,21.76,32,25.31,27.58l0.17-.33c-3.52.75-7.83,0-9.34-1.59a1.94,1.94,0,0,1-.4-2.4,3.07,3.07,0,0,1,2-1.71,4.71,4.71,0,0,1,3.39.9l-0.67.9A3.61,3.61,0,0,0,18,22.65a2,2,0,0,0-1.3,1.13,0.84,0.84,0,0,0,.21,1.09c1.37,1.4,5.84,2,9,1.09,0.93-3.2.31-7.67-1.09-9a0.84,0.84,0,0,0-1.09-.21A2,2,0,0,0,22.65,18a3.64,3.64,0,0,0,.71,2.48l-0.9.67a4.72,4.72,0,0,1-.9-3.39,3.08,3.08,0,0,1,1.71-2,1.94,1.94,0,0,1,2.4.4c1.55,1.51,2.33,5.82,1.59,9.35l0.33-.17C32,21.76,43.88,13.91,66.3,10.64H27.86a16.66,16.66,0,0,1,1.31,1.76H43.73l0.1,1.11c-5.47,1-12.51,5.69-12.58,5.73l-0.77.51-0.1-.92a13.34,13.34,0,0,0-1.85-5.32H19.86v4.69l-6.8-5.81h5.68V10.64h-8.1v8.1H12.4V13.06l5.81,6.8H13.52v8.67a13.33,13.33,0,0,0,5.32,1.85l0.92,0.1-0.51.77c0,0.07-4.73,7.12-5.73,12.58l-1.11-.1V29.17A16.67,16.67,0,0,1,10.64,27.86Zm2.88,2v10a51.1,51.1,0,0,1,4.32-8.45A14.51,14.51,0,0,1,13.52,29.83Zm0-11.09h2.26l-2.26-2.65v2.65Zm16.31-5.22a14.48,14.48,0,0,1,1.53,4.32,51,51,0,0,1,8.45-4.32h-10Zm-13.74,0,2.65,2.26V13.52H16.09Z"/><path class="cls-2" d="M192.06,272.7H181.73v-2.88h-7.95a13.27,13.27,0,0,0,1.62,1.91l1.07,1H124.67l0-1.12c31.93-2.17,46.5-13.52,49.81-16.5,3-3.31,14.34-17.89,16.5-49.81l1.12,0v51.8l-1-1.07a13.45,13.45,0,0,0-1.91-1.62v7.94h2.88V272.7Zm-9.22-1.12h8.1v-8.1h-1.76v5.68l-5.81-6.8h4.69v-8.67a13.34,13.34,0,0,0-5.32-1.85l-0.92-.1,0.51-.77c0-.07,4.73-7.12,5.74-12.58l1.11,0.1V253a16.75,16.75,0,0,1,1.76,1.31V215.92c-3.27,22.42-11.12,34.32-14.67,38.72l-0.17.33c3.53-.75,7.83,0,9.34,1.59a1.94,1.94,0,0,1,.4,2.4,3.07,3.07,0,0,1-2,1.71,4.67,4.67,0,0,1-3.39-.9l0.67-.9a3.63,3.63,0,0,0,2.48.71,2,2,0,0,0,1.3-1.13,0.84,0.84,0,0,0-.21-1.09c-1.37-1.4-5.84-2-9-1.09-0.93,3.2-.31,7.67,1.09,9a0.84,0.84,0,0,0,1.09.21,2,2,0,0,0,1.13-1.3,3.63,3.63,0,0,0-.71-2.48l0.9-.67a4.71,4.71,0,0,1,.9,3.39,3.07,3.07,0,0,1-1.71,2,1.94,1.94,0,0,1-2.4-.4c-1.55-1.51-2.33-5.82-1.59-9.35l-0.33.17c-4.4,3.55-16.3,11.4-38.72,14.67h38.45a16.61,16.61,0,0,1-1.31-1.76H157.85l-0.1-1.11c5.47-1,12.51-5.69,12.58-5.73l0.77-.51,0.1,0.92A13.31,13.31,0,0,0,173,268.7h8.68V264l6.8,5.81h-5.68v1.76Zm0-2.88h2.65l-2.65-2.26v2.26Zm-21.07,0h10a14.49,14.49,0,0,1-1.53-4.32A51,51,0,0,1,161.77,268.7Zm24-5.22,2.26,2.65v-2.65H185.8Zm-2.06-12.63a14.47,14.47,0,0,1,4.32,1.53v-10A51.15,51.15,0,0,1,183.75,250.85Z"/><path class="cls-2" d="M190.94,77c-2.17-31.93-13.52-46.5-16.5-49.81-3.31-3-17.89-14.34-49.81-16.5l0-1.12h51.8l-1.07,1a13.55,13.55,0,0,0-1.62,1.91h7.94V9.52h10.34V19.86h-2.88V27.8a13.46,13.46,0,0,0,1.91-1.62l1-1.07v51.8ZM176.28,27.58c3.55,4.4,11.39,16.3,14.67,38.72V27.86a16.76,16.76,0,0,1-1.76,1.31V43.73l-1.11.1c-1-5.47-5.69-12.51-5.73-12.58l-0.51-.77,0.92-.1a13.34,13.34,0,0,0,5.32-1.85V19.86h-4.69l5.81-6.8v5.68h1.76v-8.1h-8.1V12.4h5.68l-6.8,5.81V13.52h-8.67a13.32,13.32,0,0,0-1.85,5.32l-0.1.92-0.77-.51c-0.07,0-7.12-4.73-12.58-5.73l0.1-1.11h14.56a16.65,16.65,0,0,1,1.31-1.76H135.28C157.7,13.91,169.61,21.76,174,25.31l0.33,0.17c-0.75-3.53,0-7.83,1.59-9.35a1.94,1.94,0,0,1,2.4-.4,3.07,3.07,0,0,1,1.71,2,4.71,4.71,0,0,1-.9,3.39l-0.9-.67a3.64,3.64,0,0,0,.71-2.48,2,2,0,0,0-1.13-1.3,0.83,0.83,0,0,0-1.09.21c-1.4,1.37-2,5.84-1.09,9,3.2,0.93,7.67.31,9-1.09a0.84,0.84,0,0,0,.21-1.09,2,2,0,0,0-1.3-1.13,3.67,3.67,0,0,0-2.48.71l-0.67-.9a4.72,4.72,0,0,1,3.39-.9,3.07,3.07,0,0,1,2,1.71,1.94,1.94,0,0,1-.4,2.4c-1.51,1.54-5.82,2.33-9.35,1.59Zm7.47,3.79a51.09,51.09,0,0,1,4.32,8.45v-10A14.52,14.52,0,0,1,183.75,31.37Zm2.06-12.63h2.26V16.09Zm-24-5.22a51,51,0,0,1,8.45,4.32,14.51,14.51,0,0,1,1.54-4.32h-10Zm21.07,0v2.26l2.65-2.26h-2.65Z"/><path class="cls-2" d="M76.92,272.7H25.11l1.07-1a13.54,13.54,0,0,0,1.62-1.91H19.86v2.88H9.52V262.36H12.4v-7.94A13.5,13.5,0,0,0,10.49,256l-1,1.07V205.3l1.12,0c2.17,31.93,13.52,46.5,16.5,49.81,3.31,3,17.88,14.34,49.81,16.5Zm-49.06-1.12H66.3C43.88,268.3,32,260.46,27.58,256.91l-0.33-.17c0.75,3.53,0,7.83-1.58,9.35a1.94,1.94,0,0,1-2.4.4,3.07,3.07,0,0,1-1.71-2,4.71,4.71,0,0,1,.9-3.39l0.9,0.67a3.64,3.64,0,0,0-.71,2.48,2,2,0,0,0,1.13,1.3,0.83,0.83,0,0,0,1.09-.21c1.4-1.37,2-5.84,1.09-9-3.21-.93-7.67-0.31-9,1.09a0.84,0.84,0,0,0-.21,1.09,2,2,0,0,0,1.3,1.13,3.64,3.64,0,0,0,2.48-.71l0.67,0.9a4.67,4.67,0,0,1-3.39.9,3.07,3.07,0,0,1-2-1.71,1.94,1.94,0,0,1,.4-2.4c1.51-1.55,5.82-2.33,9.35-1.59l-0.17-.33c-3.55-4.4-11.39-16.3-14.67-38.72v38.44A16.64,16.64,0,0,1,12.4,253V238.49l1.11-.1c1,5.47,5.69,12.51,5.73,12.58l0.51,0.77-0.92.1a13.33,13.33,0,0,0-5.32,1.85v8.67h4.69l-5.81,6.8v-5.68H10.64v8.1h8.1v-1.76H13.05l6.8-5.81v4.69h8.67a13.32,13.32,0,0,0,1.85-5.32l0.1-.92L31.25,263c0.07,0,7.12,4.73,12.58,5.73l-0.1,1.11H29.17A16.75,16.75,0,0,1,27.86,271.58Zm2-2.88h10a51,51,0,0,1-8.44-4.32A14.49,14.49,0,0,1,29.83,268.7Zm-13.74,0h2.65v-2.26Zm-2.57-5.22v2.65l2.26-2.65H13.52Zm0-21.07v10a14.46,14.46,0,0,1,4.32-1.53A51.07,51.07,0,0,1,13.52,242.4Z"/><path class="cls-2" d="M10.64,77l-1.12,0V25.12l1,1.07A13.39,13.39,0,0,0,12.4,27.8V19.86H9.52V9.52H19.86V12.4H27.8a13.31,13.31,0,0,0-1.62-1.91l-1.07-1H76.92l0,1.12C45,12.81,30.45,24.16,27.14,27.14,24.16,30.45,12.81,45,10.64,77Zm0-49.1V66.3C13.91,43.88,21.76,32,25.31,27.58l0.17-.33c-3.52.75-7.83,0-9.34-1.59a1.94,1.94,0,0,1-.4-2.4,3.07,3.07,0,0,1,2-1.71,4.71,4.71,0,0,1,3.39.9l-0.67.9A3.61,3.61,0,0,0,18,22.65a2,2,0,0,0-1.3,1.13,0.84,0.84,0,0,0,.21,1.09c1.37,1.4,5.84,2,9,1.09,0.93-3.2.31-7.67-1.09-9a0.84,0.84,0,0,0-1.09-.21A2,2,0,0,0,22.65,18a3.64,3.64,0,0,0,.71,2.48l-0.9.67a4.72,4.72,0,0,1-.9-3.39,3.08,3.08,0,0,1,1.71-2,1.94,1.94,0,0,1,2.4.4c1.55,1.51,2.33,5.82,1.59,9.35l0.33-.17C32,21.76,43.88,13.91,66.3,10.64H27.86a16.66,16.66,0,0,1,1.31,1.76H43.73l0.1,1.11c-5.47,1-12.51,5.69-12.58,5.73l-0.77.51-0.1-.92a13.34,13.34,0,0,0-1.85-5.32H19.86v4.69l-6.8-5.81h5.68V10.64h-8.1v8.1H12.4V13.06l5.81,6.8H13.52v8.67a13.33,13.33,0,0,0,5.32,1.85l0.92,0.1-0.51.77c0,0.07-4.73,7.12-5.73,12.58l-1.11-.1V29.17A16.67,16.67,0,0,1,10.64,27.86Zm2.88,2v10a51.1,51.1,0,0,1,4.32-8.45A14.51,14.51,0,0,1,13.52,29.83Zm0-11.09h2.26l-2.26-2.65v2.65Zm16.31-5.22a14.48,14.48,0,0,1,1.53,4.32,51,51,0,0,1,8.45-4.32h-10Zm-13.74,0,2.65,2.26V13.52H16.09Z"/><path class="cls-2" d="M192.06,272.7H181.73v-2.88h-7.95a13.27,13.27,0,0,0,1.62,1.91l1.07,1H124.67l0-1.12c31.93-2.17,46.5-13.52,49.81-16.5,3-3.31,14.34-17.89,16.5-49.81l1.12,0v51.8l-1-1.07a13.45,13.45,0,0,0-1.91-1.62v7.94h2.88V272.7Zm-9.22-1.12h8.1v-8.1h-1.76v5.68l-5.81-6.8h4.69v-8.67a13.34,13.34,0,0,0-5.32-1.85l-0.92-.1,0.51-.77c0-.07,4.73-7.12,5.74-12.58l1.11,0.1V253a16.75,16.75,0,0,1,1.76,1.31V215.92c-3.27,22.42-11.12,34.32-14.67,38.72l-0.17.33c3.53-.75,7.83,0,9.34,1.59a1.94,1.94,0,0,1,.4,2.4,3.07,3.07,0,0,1-2,1.71,4.67,4.67,0,0,1-3.39-.9l0.67-.9a3.63,3.63,0,0,0,2.48.71,2,2,0,0,0,1.3-1.13,0.84,0.84,0,0,0-.21-1.09c-1.37-1.4-5.84-2-9-1.09-0.93,3.2-.31,7.67,1.09,9a0.84,0.84,0,0,0,1.09.21,2,2,0,0,0,1.13-1.3,3.63,3.63,0,0,0-.71-2.48l0.9-.67a4.71,4.71,0,0,1,.9,3.39,3.07,3.07,0,0,1-1.71,2,1.94,1.94,0,0,1-2.4-.4c-1.55-1.51-2.33-5.82-1.59-9.35l-0.33.17c-4.4,3.55-16.3,11.4-38.72,14.67h38.45a16.61,16.61,0,0,1-1.31-1.76H157.85l-0.1-1.11c5.47-1,12.51-5.69,12.58-5.73l0.77-.51,0.1,0.92A13.31,13.31,0,0,0,173,268.7h8.68V264l6.8,5.81h-5.68v1.76Zm0-2.88h2.65l-2.65-2.26v2.26Zm-21.07,0h10a14.49,14.49,0,0,1-1.53-4.32A51,51,0,0,1,161.77,268.7Zm24-5.22,2.26,2.65v-2.65H185.8Zm-2.06-12.63a14.47,14.47,0,0,1,4.32,1.53v-10A51.15,51.15,0,0,1,183.75,250.85Z"/><path class="cls-2" d="M100.79,170.18L74.68,137.64l26.11-32.55,26.11,32.55ZM76.12,137.64l24.67,30.76,24.67-30.76-24.67-30.76Z"/><rect class="cls-2" x="9.52" y="76.92" width="1.12" height="128.38"/><rect class="cls-2" x="190.94" y="76.92" width="1.12" height="128.38"/></svg>